<mxfile host="app.diagrams.net" agent="Mozilla/5.0 (Macintosh; Intel Mac OS X 10_15_7) AppleWebKit/537.36 (KHTML, like Gecko) Chrome/139.0.0.0 Safari/537.36" version="28.2.3">
  <diagram name="Page-1" id="-WQPIGVeXhMWPzrfoOie">
    <mxGraphModel dx="795" dy="538" grid="1" gridSize="10" guides="1" tooltips="1" connect="1" arrows="1" fold="1" page="1" pageScale="1" pageWidth="850" pageHeight="1100" math="0" shadow="0">
      <root>
        <mxCell id="0" />
        <mxCell id="1" parent="0" />
        <mxCell id="k9mwXNJjs8Ez-tMwDr7D-5" value="" style="edgeStyle=orthogonalEdgeStyle;rounded=0;orthogonalLoop=1;jettySize=auto;html=1;" edge="1" parent="1" source="k9mwXNJjs8Ez-tMwDr7D-1" target="k9mwXNJjs8Ez-tMwDr7D-4">
          <mxGeometry relative="1" as="geometry" />
        </mxCell>
        <mxCell id="k9mwXNJjs8Ez-tMwDr7D-1" value="Start" style="ellipse;whiteSpace=wrap;html=1;aspect=fixed;" vertex="1" parent="1">
          <mxGeometry x="335" y="60" width="80" height="80" as="geometry" />
        </mxCell>
        <mxCell id="k9mwXNJjs8Ez-tMwDr7D-7" value="" style="edgeStyle=orthogonalEdgeStyle;rounded=0;orthogonalLoop=1;jettySize=auto;html=1;" edge="1" parent="1" source="k9mwXNJjs8Ez-tMwDr7D-4" target="k9mwXNJjs8Ez-tMwDr7D-6">
          <mxGeometry relative="1" as="geometry" />
        </mxCell>
        <mxCell id="k9mwXNJjs8Ez-tMwDr7D-4" value="Enter Info" style="whiteSpace=wrap;html=1;" vertex="1" parent="1">
          <mxGeometry x="315" y="230" width="120" height="60" as="geometry" />
        </mxCell>
        <mxCell id="k9mwXNJjs8Ez-tMwDr7D-18" value="" style="edgeStyle=orthogonalEdgeStyle;rounded=0;orthogonalLoop=1;jettySize=auto;html=1;" edge="1" parent="1" source="k9mwXNJjs8Ez-tMwDr7D-6" target="k9mwXNJjs8Ez-tMwDr7D-17">
          <mxGeometry relative="1" as="geometry" />
        </mxCell>
        <mxCell id="k9mwXNJjs8Ez-tMwDr7D-27" value="Yes" style="edgeLabel;html=1;align=center;verticalAlign=middle;resizable=0;points=[];" vertex="1" connectable="0" parent="k9mwXNJjs8Ez-tMwDr7D-18">
          <mxGeometry x="-0.5778" y="-3" relative="1" as="geometry">
            <mxPoint as="offset" />
          </mxGeometry>
        </mxCell>
        <mxCell id="k9mwXNJjs8Ez-tMwDr7D-22" value="" style="edgeStyle=orthogonalEdgeStyle;rounded=0;orthogonalLoop=1;jettySize=auto;html=1;" edge="1" parent="1" source="k9mwXNJjs8Ez-tMwDr7D-6" target="k9mwXNJjs8Ez-tMwDr7D-21">
          <mxGeometry relative="1" as="geometry" />
        </mxCell>
        <mxCell id="k9mwXNJjs8Ez-tMwDr7D-23" value="No" style="edgeLabel;html=1;align=center;verticalAlign=middle;resizable=0;points=[];" vertex="1" connectable="0" parent="k9mwXNJjs8Ez-tMwDr7D-22">
          <mxGeometry x="-0.4333" y="1" relative="1" as="geometry">
            <mxPoint as="offset" />
          </mxGeometry>
        </mxCell>
        <mxCell id="k9mwXNJjs8Ez-tMwDr7D-6" value="Validate Info" style="rhombus;whiteSpace=wrap;html=1;" vertex="1" parent="1">
          <mxGeometry x="335" y="360" width="80" height="80" as="geometry" />
        </mxCell>
        <mxCell id="k9mwXNJjs8Ez-tMwDr7D-31" value="" style="edgeStyle=orthogonalEdgeStyle;rounded=0;orthogonalLoop=1;jettySize=auto;html=1;" edge="1" parent="1" source="k9mwXNJjs8Ez-tMwDr7D-17" target="k9mwXNJjs8Ez-tMwDr7D-30">
          <mxGeometry relative="1" as="geometry" />
        </mxCell>
        <mxCell id="k9mwXNJjs8Ez-tMwDr7D-17" value="Check Credentials in Data Base" style="whiteSpace=wrap;html=1;" vertex="1" parent="1">
          <mxGeometry x="315" y="530" width="120" height="60" as="geometry" />
        </mxCell>
        <mxCell id="k9mwXNJjs8Ez-tMwDr7D-25" value="" style="edgeStyle=orthogonalEdgeStyle;rounded=0;orthogonalLoop=1;jettySize=auto;html=1;" edge="1" parent="1" source="k9mwXNJjs8Ez-tMwDr7D-21">
          <mxGeometry relative="1" as="geometry">
            <mxPoint x="535" y="260" as="targetPoint" />
          </mxGeometry>
        </mxCell>
        <mxCell id="k9mwXNJjs8Ez-tMwDr7D-21" value="Create Account" style="whiteSpace=wrap;html=1;" vertex="1" parent="1">
          <mxGeometry x="475" y="370" width="120" height="60" as="geometry" />
        </mxCell>
        <mxCell id="k9mwXNJjs8Ez-tMwDr7D-26" value="" style="edgeStyle=orthogonalEdgeStyle;rounded=0;orthogonalLoop=1;jettySize=auto;html=1;" edge="1" parent="1" target="k9mwXNJjs8Ez-tMwDr7D-4">
          <mxGeometry relative="1" as="geometry">
            <mxPoint x="535" y="260" as="sourcePoint" />
          </mxGeometry>
        </mxCell>
        <mxCell id="k9mwXNJjs8Ez-tMwDr7D-30" value="Log in Successful" style="ellipse;whiteSpace=wrap;html=1;" vertex="1" parent="1">
          <mxGeometry x="335" y="660" width="80" height="80" as="geometry" />
        </mxCell>
      </root>
    </mxGraphModel>
  </diagram>
</mxfile>
